<svg width="329" height="48" viewBox="0 0 329 48" fill="none" xmlns="http://www.w3.org/2000/svg">
<path d="M18.336 34.336C16.8 34.336 14.688 34.272 12 34.144C10.56 34.048 9.42401 34 8.59201 34L5.42401 34.048C3.76001 34.112 2.56001 34.144 1.82401 34.144C1.56801 34.144 1.34401 34.08 1.15201 33.952C0.960014 33.824 0.864014 33.664 0.864014 33.472C0.864014 32.928 1.20001 32.592 1.87201 32.464C3.12001 32.208 3.95201 31.872 4.36801 31.456C4.81601 31.04 5.04001 30.336 5.04001 29.344V7.55201C5.04001 6.496 4.83201 5.76 4.41601 5.34401C4.00001 4.92801 3.15201 4.576 1.87201 4.288C1.20001 4.12801 0.864014 3.792 0.864014 3.28C0.864014 3.056 0.960014 2.88 1.15201 2.752C1.34401 2.624 1.56801 2.56 1.82401 2.56C3.00801 2.56 4.19201 2.608 5.37601 2.70401C6.91201 2.768 8.00001 2.8 8.64001 2.8C9.18401 2.8 10.672 2.736 13.104 2.608C15.28 2.448 17.056 2.368 18.432 2.368C21.632 2.368 24.528 3.024 27.12 4.336C29.744 5.648 31.792 7.488 33.264 9.856C34.768 12.224 35.52 14.896 35.52 17.872C35.52 20.784 34.832 23.504 33.456 26.032C32.08 28.528 30.08 30.544 27.456 32.08C24.864 33.584 21.824 34.336 18.336 34.336ZM17.616 31.888C20.816 31.888 23.248 30.752 24.912 28.48C26.608 26.208 27.456 23.104 27.456 19.168C27.456 16.32 27.04 13.824 26.208 11.68C25.408 9.53601 24.224 7.87201 22.656 6.68801C21.088 5.50401 19.232 4.91201 17.088 4.91201C15.328 4.91201 14.112 5.024 13.44 5.248C12.768 5.44 12.432 5.936 12.432 6.736V27.664C12.432 29.2 12.864 30.288 13.728 30.928C14.592 31.568 15.888 31.888 17.616 31.888Z" fill="#151515"/>
<path d="M38.526 34.144C38.334 34.144 38.158 34.096 37.998 34C37.838 33.872 37.758 33.712 37.758 33.52C37.758 33.04 38.046 32.72 38.622 32.56C39.486 32.368 40.078 32.16 40.398 31.936C40.718 31.68 40.878 31.296 40.878 30.784V20.416C40.878 19.36 40.718 18.592 40.398 18.112C40.078 17.632 39.55 17.344 38.814 17.248C38.622 17.216 38.478 17.12 38.382 16.96C38.286 16.8 38.238 16.608 38.238 16.384C38.238 16.192 38.286 16.016 38.382 15.856C38.51 15.696 38.638 15.6 38.766 15.568C40.206 15.312 41.47 14.96 42.558 14.512C43.678 14.064 44.894 13.52 46.206 12.88C46.654 12.624 46.974 12.496 47.166 12.496C47.358 12.496 47.502 12.56 47.598 12.688C47.726 12.784 47.79 12.912 47.79 13.072L47.598 14.848C47.31 17.28 47.166 19.04 47.166 20.128V30.736C47.166 31.184 47.326 31.536 47.646 31.792C47.966 32.048 48.574 32.304 49.47 32.56C49.758 32.656 49.966 32.768 50.094 32.896C50.254 33.024 50.334 33.216 50.334 33.472C50.334 33.888 50.094 34.096 49.614 34.096C48.942 34.096 47.966 34.064 46.686 34C45.406 33.936 44.494 33.904 43.95 33.904C43.406 33.904 42.558 33.936 41.406 34C40.446 34.096 39.486 34.144 38.526 34.144ZM43.806 10.336C42.782 10.336 41.902 9.968 41.166 9.232C40.43 8.496 40.062 7.616 40.062 6.592C40.062 5.504 40.43 4.592 41.166 3.856C41.902 3.12 42.782 2.752 43.806 2.752C44.894 2.752 45.806 3.12 46.542 3.856C47.31 4.592 47.694 5.504 47.694 6.592C47.694 7.616 47.31 8.496 46.542 9.232C45.806 9.968 44.894 10.336 43.806 10.336Z" fill="#151515"/>
<path d="M62.2823 34.672C60.3943 34.672 58.6663 34.24 57.0983 33.376C55.5303 32.512 54.2983 31.328 53.4023 29.824C52.5063 28.288 52.0583 26.56 52.0583 24.64C52.0583 22.624 52.5543 20.736 53.5463 18.976C54.5703 17.216 55.9303 15.824 57.6263 14.8C59.3543 13.744 61.2583 13.216 63.3383 13.216C65.2583 13.216 67.0343 13.68 68.6663 14.608C70.2983 15.504 71.5783 16.736 72.5063 18.304C73.4663 19.84 73.9463 21.488 73.9463 23.248C73.9463 25.36 73.4983 27.28 72.6023 29.008C71.7063 30.736 70.3783 32.112 68.6183 33.136C66.8903 34.16 64.7783 34.672 62.2823 34.672ZM63.2423 32.56C64.5543 32.56 65.5463 32.016 66.2183 30.928C66.8903 29.808 67.2263 27.632 67.2263 24.4C67.2263 21.776 66.7943 19.616 65.9303 17.92C65.0983 16.192 63.9943 15.328 62.6183 15.328C61.6263 15.328 60.7943 15.664 60.1223 16.336C59.5783 16.944 59.1943 17.824 58.9703 18.976C58.7783 20.128 58.6823 21.616 58.6823 23.44C58.6823 24.976 58.8743 26.448 59.2583 27.856C59.6743 29.264 60.2183 30.4 60.8903 31.264C61.5943 32.128 62.3783 32.56 63.2423 32.56Z" fill="#151515"/>
<path d="M98.5669 14.368C98.7909 14.368 98.9669 14.464 99.0949 14.656C99.2549 14.848 99.3349 15.104 99.3349 15.424C99.3349 15.648 99.2709 15.936 99.1429 16.288C99.0149 16.608 98.8709 16.896 98.7109 17.152C98.5189 17.376 98.3109 17.488 98.0869 17.488H96.7909C95.9909 17.488 95.4309 17.616 95.1109 17.872C94.9829 18.032 94.9029 18.256 94.8709 18.544C94.8709 18.8 94.8709 19.328 94.8709 20.128C94.8709 21.792 94.4389 23.328 93.5749 24.736C92.7429 26.144 91.6069 27.28 90.1669 28.144C88.7269 28.976 87.1749 29.392 85.5109 29.392C84.5189 29.392 83.4469 29.184 82.2949 28.768C82.0069 28.96 81.7669 29.184 81.5749 29.44C81.4149 29.664 81.3349 29.872 81.3349 30.064C81.3349 30.576 81.8149 30.96 82.7749 31.216C83.7349 31.472 85.5269 31.696 88.1509 31.888C91.6069 32.144 94.1189 32.672 95.6869 33.472C97.2549 34.272 98.0389 35.424 98.0389 36.928C98.0389 38.656 97.4149 40.368 96.1669 42.064C94.9189 43.76 93.3029 45.152 91.3189 46.24C89.3669 47.328 87.3989 47.872 85.4149 47.872C82.3109 47.872 79.8789 47.376 78.1189 46.384C76.3589 45.424 75.4789 44.096 75.4789 42.4C75.4789 41.376 75.5909 40.576 75.8149 40C76.0709 39.456 76.5829 38.896 77.3509 38.32C77.8629 37.968 78.4069 37.568 78.9829 37.12C79.5589 36.704 79.9589 36.4 80.1829 36.208C77.9109 35.312 76.7749 33.856 76.7749 31.84C76.7749 31.136 77.2069 30.512 78.0709 29.968C79.4469 28.944 80.2949 28.272 80.6149 27.952C79.4309 27.216 78.4709 26.288 77.7349 25.168C77.0309 24.016 76.6789 22.768 76.6789 21.424C76.6789 19.856 77.1269 18.448 78.0229 17.2C78.9189 15.952 80.1029 14.976 81.5749 14.272C83.0789 13.568 84.6789 13.216 86.3749 13.216C87.3349 13.216 88.5509 13.392 90.0229 13.744C90.9189 13.936 91.6069 14.064 92.0869 14.128C93.4309 14.384 94.7109 14.512 95.9269 14.512C96.3429 14.512 96.8709 14.48 97.5109 14.416L98.5669 14.368ZM86.0389 27.28C87.0309 27.28 87.8309 26.72 88.4389 25.6C89.0469 24.48 89.3509 22.976 89.3509 21.088C89.3509 19.328 89.0149 17.904 88.3429 16.816C87.7029 15.728 86.8709 15.184 85.8469 15.184C84.9189 15.184 84.1189 15.744 83.4469 16.864C82.8069 17.952 82.4869 19.312 82.4869 20.944C82.4869 22.704 82.8229 24.208 83.4949 25.456C84.1989 26.672 85.0469 27.28 86.0389 27.28ZM92.2309 40.048C92.2309 39.536 92.0389 39.12 91.6549 38.8C91.3029 38.48 90.6789 38.208 89.7829 37.984C88.9189 37.792 87.6549 37.6 85.9909 37.408C85.0309 37.344 83.8949 37.184 82.5829 36.928C81.6549 37.504 80.9509 38.112 80.4709 38.752C80.0229 39.392 79.7989 40.112 79.7989 40.912C79.7989 42.224 80.3429 43.312 81.4309 44.176C82.5189 45.04 83.9109 45.472 85.6069 45.472C87.8469 45.472 89.4149 45.04 90.3109 44.176C90.9189 43.6 91.3829 42.944 91.7029 42.208C92.0549 41.504 92.2309 40.784 92.2309 40.048Z" fill="#151515"/>
<path d="M110.048 34.672C108.16 34.672 106.432 34.24 104.864 33.376C103.296 32.512 102.064 31.328 101.168 29.824C100.272 28.288 99.8239 26.56 99.8239 24.64C99.8239 22.624 100.32 20.736 101.312 18.976C102.336 17.216 103.696 15.824 105.392 14.8C107.12 13.744 109.024 13.216 111.104 13.216C113.024 13.216 114.8 13.68 116.432 14.608C118.064 15.504 119.344 16.736 120.272 18.304C121.232 19.84 121.712 21.488 121.712 23.248C121.712 25.36 121.264 27.28 120.368 29.008C119.472 30.736 118.144 32.112 116.384 33.136C114.656 34.16 112.544 34.672 110.048 34.672ZM111.008 32.56C112.32 32.56 113.312 32.016 113.984 30.928C114.656 29.808 114.992 27.632 114.992 24.4C114.992 21.776 114.56 19.616 113.696 17.92C112.864 16.192 111.76 15.328 110.384 15.328C109.392 15.328 108.56 15.664 107.888 16.336C107.344 16.944 106.96 17.824 106.736 18.976C106.544 20.128 106.448 21.616 106.448 23.44C106.448 24.976 106.64 26.448 107.024 27.856C107.44 29.264 107.984 30.4 108.656 31.264C109.36 32.128 110.144 32.56 111.008 32.56Z" fill="#151515"/>
<path d="M135.259 34.24C134.427 34.24 134.011 33.984 134.011 33.472C134.011 33.184 134.107 32.96 134.299 32.8C134.491 32.64 134.779 32.512 135.163 32.416C137.115 31.84 138.443 30.768 139.147 29.2C142.027 22.512 144.811 15.472 147.499 8.08C147.883 7.024 148.171 6.12801 148.363 5.392C148.555 4.656 148.667 4.256 148.699 4.192C149.883 3.904 150.971 3.584 151.963 3.232C152.827 2.88 153.611 2.32 154.315 1.552C154.475 1.456 154.603 1.408 154.699 1.408C154.891 1.408 155.019 1.504 155.083 1.696C155.307 2.176 155.467 2.608 155.563 2.992C157.675 9.776 160.475 18.464 163.963 29.056C164.507 30.784 165.835 31.904 167.947 32.416C168.331 32.512 168.619 32.64 168.811 32.8C169.003 32.96 169.099 33.168 169.099 33.424C169.099 33.648 169.003 33.824 168.811 33.952C168.651 34.08 168.427 34.144 168.139 34.144L164.491 34.048C163.019 33.952 161.643 33.904 160.363 33.904C159.755 33.904 158.587 33.936 156.859 34C155.067 34.064 153.835 34.096 153.163 34.096C152.875 34.096 152.619 34.048 152.395 33.952C152.203 33.824 152.107 33.648 152.107 33.424C152.107 32.944 152.491 32.608 153.259 32.416C154.379 32.192 155.195 31.92 155.707 31.6C156.219 31.248 156.475 30.784 156.475 30.208C156.475 30.08 156.443 29.856 156.379 29.536L155.515 26.08L154.843 23.536C154.779 23.28 154.683 23.104 154.555 23.008C154.427 22.88 154.235 22.816 153.979 22.816H145.483C145.259 22.816 145.083 22.88 144.955 23.008C144.827 23.136 144.731 23.344 144.667 23.632C143.803 26.256 143.243 28.032 142.987 28.96C142.891 29.28 142.843 29.6 142.843 29.92C142.843 30.56 143.083 31.072 143.563 31.456C144.043 31.84 144.843 32.16 145.963 32.416C146.731 32.576 147.115 32.912 147.115 33.424C147.115 33.872 146.747 34.096 146.011 34.096L143.419 34.048C142.331 33.984 141.451 33.952 140.779 33.952C140.331 33.952 139.819 33.968 139.243 34C138.699 34.064 138.299 34.096 138.043 34.096C137.147 34.192 136.219 34.24 135.259 34.24ZM153.067 20.224C153.547 20.224 153.787 20.112 153.787 19.888C153.787 19.824 153.755 19.664 153.691 19.408L150.475 8.56C150.379 8.208 150.283 8.03201 150.187 8.03201C150.155 8.03201 150.043 8.208 149.851 8.56L146.059 19.408C145.995 19.536 145.963 19.664 145.963 19.792C145.963 20.08 146.251 20.224 146.827 20.224H153.067Z" fill="#151515"/>
<path d="M170.478 34.144C170.19 34.144 169.95 34.096 169.758 34C169.598 33.872 169.518 33.696 169.518 33.472C169.518 33.024 169.886 32.704 170.622 32.512C171.326 32.256 171.806 32.032 172.062 31.84C172.318 31.648 172.446 31.264 172.446 30.688V7.60001C172.446 6.64 172.302 5.872 172.014 5.296C171.758 4.688 171.262 4.304 170.526 4.144C170.206 4.08 170.046 3.84 170.046 3.424C170.046 3.008 170.19 2.768 170.478 2.70401C171.342 2.54401 172.382 2.25601 173.598 1.84C174.846 1.424 175.95 1.04 176.91 0.688005L177.918 0.304005C178.142 0.208004 178.35 0.160004 178.542 0.160004C178.862 0.160004 179.022 0.352004 179.022 0.736005C179.022 0.992003 178.974 1.456 178.878 2.128C178.814 2.8 178.766 3.44001 178.734 4.04801V30.592C178.734 31.136 178.846 31.52 179.07 31.744C179.326 31.936 179.614 32.096 179.934 32.224C180.254 32.32 180.462 32.384 180.558 32.416C180.942 32.544 181.214 32.688 181.374 32.848C181.566 32.976 181.662 33.152 181.662 33.376C181.662 33.6 181.566 33.776 181.374 33.904C181.214 34 180.99 34.048 180.702 34.048C180.03 34.048 179.118 34.016 177.966 33.952L175.47 33.904C174.958 33.904 174.19 33.936 173.166 34C172.302 34.096 171.406 34.144 170.478 34.144Z" fill="#151515"/>
<path d="M191.816 34.672C190.152 34.672 188.632 34.224 187.256 33.328C185.88 32.4 184.792 31.152 183.992 29.584C183.224 28.016 182.84 26.272 182.84 24.352C182.84 22.304 183.304 20.448 184.232 18.784C185.192 17.088 186.488 15.744 188.12 14.752C189.752 13.76 191.56 13.264 193.544 13.264C194.824 13.264 196.024 13.488 197.144 13.936C198.296 14.384 199.272 15.024 200.072 15.856C200.36 16.144 200.504 16.432 200.504 16.72C200.504 17.04 200.2 17.504 199.592 18.112C199.016 18.688 198.552 18.976 198.2 18.976C197.912 18.976 197.656 18.912 197.432 18.784C197.24 18.656 196.952 18.432 196.568 18.112C195.736 17.408 194.888 16.848 194.024 16.432C193.192 15.984 192.472 15.76 191.864 15.76C190.616 15.76 189.688 16.272 189.08 17.296C188.472 18.32 188.168 19.952 188.168 22.192C188.168 24.56 188.712 26.416 189.8 27.76C190.888 29.104 192.424 29.776 194.408 29.776C195.336 29.776 196.152 29.632 196.856 29.344C197.56 29.056 198.312 28.576 199.112 27.904C199.208 27.84 199.336 27.76 199.496 27.664C199.656 27.536 199.8 27.472 199.928 27.472C200.312 27.472 200.504 27.728 200.504 28.24C200.504 28.624 200.376 29.072 200.12 29.584C199.768 30.288 199.176 31.04 198.344 31.84C197.544 32.64 196.568 33.312 195.416 33.856C194.264 34.4 193.064 34.672 191.816 34.672Z" fill="#151515"/>
<path d="M206.911 34.672C205.631 34.672 204.511 34.24 203.551 33.376C202.591 32.48 202.111 31.424 202.111 30.208C202.111 29.12 202.431 28.224 203.071 27.52C203.743 26.784 204.783 26.112 206.191 25.504L210.463 23.632C211.103 23.344 211.487 23.088 211.615 22.864C211.775 22.64 211.855 22.224 211.855 21.616L211.903 18.88C211.935 17.952 211.775 17.232 211.423 16.72C211.071 16.208 210.543 15.952 209.839 15.952C209.455 15.952 209.039 16.048 208.591 16.24C208.175 16.4 207.855 16.592 207.631 16.816C207.439 17.04 207.343 17.376 207.343 17.824C207.343 18.048 207.359 18.288 207.391 18.544C207.423 18.768 207.439 18.992 207.439 19.216C207.439 19.536 206.895 19.936 205.807 20.416C204.751 20.896 203.871 21.136 203.167 21.136C202.911 21.136 202.703 21.04 202.543 20.848C202.383 20.656 202.303 20.416 202.303 20.128C202.303 19.616 202.479 19.12 202.831 18.64C203.183 18.16 203.759 17.584 204.559 16.912C205.807 15.888 207.215 15.024 208.783 14.32C210.351 13.616 211.663 13.264 212.719 13.264C214.415 13.264 215.775 13.824 216.799 14.944C217.823 16.032 218.319 17.488 218.287 19.312L218.047 29.008C218.015 29.744 218.143 30.368 218.431 30.88C218.719 31.392 219.071 31.648 219.487 31.648C220.095 31.648 220.623 31.44 221.071 31.024C221.167 30.928 221.263 30.88 221.359 30.88C221.519 30.88 221.647 30.944 221.743 31.072C221.871 31.168 221.935 31.28 221.935 31.408C221.935 31.824 221.647 32.32 221.071 32.896C219.887 34.08 218.543 34.672 217.039 34.672C216.111 34.672 215.295 34.448 214.591 34C213.887 33.584 213.215 32.896 212.575 31.936H212.479C211.423 32.928 210.463 33.632 209.599 34.048C208.767 34.464 207.871 34.672 206.911 34.672ZM209.791 31.552C210.399 31.552 210.911 31.312 211.327 30.832C211.551 30.48 211.663 30.064 211.663 29.584L211.807 26.128C211.807 25.616 211.647 25.36 211.327 25.36C211.167 25.36 210.975 25.424 210.751 25.552C209.727 26.032 209.007 26.512 208.591 26.992C208.207 27.472 208.015 28.192 208.015 29.152C208.015 29.984 208.191 30.592 208.543 30.976C208.895 31.36 209.311 31.552 209.791 31.552Z" fill="#151515"/>
<path d="M223.734 34.144C223.51 34.144 223.286 34.08 223.062 33.952C222.87 33.824 222.774 33.664 222.774 33.472C222.774 33.088 223.142 32.768 223.878 32.512C224.518 32.32 224.982 32.112 225.27 31.888C225.558 31.664 225.702 31.264 225.702 30.688V19.696C225.702 18.096 225.206 17.2 224.214 17.008C223.862 16.944 223.686 16.656 223.686 16.144C223.686 15.696 223.846 15.424 224.166 15.328C225.286 15.072 226.502 14.72 227.814 14.272C229.126 13.824 230.214 13.376 231.078 12.928C231.494 12.672 231.782 12.544 231.942 12.544C232.23 12.544 232.374 12.736 232.374 13.12L232.278 14.08C232.182 15.232 232.134 15.824 232.134 15.856C232.134 16.272 232.166 16.512 232.23 16.576C233.414 15.456 234.55 14.624 235.638 14.08C236.758 13.536 238.022 13.264 239.43 13.264C241.158 13.264 242.566 13.888 243.654 15.136C244.774 16.384 245.334 18.048 245.334 20.128V30.688C245.334 31.264 245.478 31.664 245.766 31.888C246.054 32.112 246.518 32.32 247.158 32.512C247.798 32.736 248.118 33.056 248.118 33.472C248.118 33.664 248.038 33.824 247.878 33.952C247.718 34.08 247.526 34.144 247.302 34.144C246.342 34.144 245.43 34.096 244.566 34C243.542 33.936 242.758 33.904 242.214 33.904C241.67 33.904 240.886 33.936 239.862 34C239.062 34.096 238.166 34.144 237.174 34.144C236.95 34.144 236.758 34.08 236.598 33.952C236.438 33.824 236.358 33.664 236.358 33.472C236.358 33.056 236.678 32.736 237.318 32.512C237.926 32.32 238.358 32.112 238.614 31.888C238.87 31.664 238.998 31.264 238.998 30.688V21.136C238.998 19.92 238.726 18.976 238.182 18.304C237.638 17.6 236.886 17.232 235.926 17.2C235.254 17.2 234.646 17.312 234.102 17.536C233.558 17.728 232.982 18.032 232.374 18.448C232.118 18.672 231.99 18.976 231.99 19.36V30.688C231.99 31.264 232.118 31.664 232.374 31.888C232.63 32.08 233.078 32.288 233.718 32.512C234.358 32.736 234.678 33.056 234.678 33.472C234.678 33.664 234.598 33.824 234.438 33.952C234.278 34.08 234.086 34.144 233.862 34.144C232.902 34.144 232.038 34.096 231.27 34C230.246 33.936 229.478 33.904 228.966 33.904C228.422 33.904 227.606 33.936 226.518 34C225.654 34.096 224.726 34.144 223.734 34.144Z" fill="#151515"/>
<path d="M258.715 34.672C256.635 34.672 255.051 34.144 253.963 33.088C252.907 32.032 252.379 30.512 252.379 28.528V17.488C252.379 17.2 252.267 16.992 252.043 16.864C251.819 16.736 251.435 16.656 250.891 16.624H250.267C250.075 16.624 249.899 16.448 249.739 16.096C249.579 15.744 249.499 15.408 249.499 15.088C249.499 14.864 249.595 14.704 249.787 14.608C251.387 14.032 253.723 12.4 256.795 9.712C256.859 9.648 256.971 9.568 257.131 9.472C257.291 9.344 257.435 9.248 257.563 9.184C257.691 9.12 257.835 9.088 257.995 9.088C258.315 9.088 258.523 9.152 258.619 9.28C258.715 9.408 258.747 9.664 258.715 10.048L258.427 12.88V13.072C258.427 13.616 258.811 13.888 259.579 13.888H265.291C265.387 13.888 265.483 14 265.579 14.224C265.675 14.448 265.723 14.656 265.723 14.848C265.723 15.328 265.659 15.776 265.531 16.192C265.403 16.576 265.259 16.768 265.099 16.768H260.635C259.899 16.768 259.387 16.864 259.099 17.056C258.843 17.216 258.715 17.52 258.715 17.968V27.04C258.715 28.48 258.987 29.568 259.531 30.304C260.075 31.04 260.827 31.408 261.787 31.408C262.523 31.408 263.083 31.36 263.467 31.264C263.883 31.136 264.219 31.008 264.475 30.88C264.763 30.752 264.939 30.672 265.003 30.64C265.131 30.576 265.227 30.544 265.291 30.544C265.451 30.544 265.579 30.64 265.675 30.832C265.771 30.992 265.819 31.216 265.819 31.504C265.819 31.728 265.451 32.112 264.715 32.656C264.011 33.168 263.115 33.632 262.027 34.048C260.939 34.464 259.835 34.672 258.715 34.672Z" fill="#151515"/>
<path d="M272.395 34.672C271.115 34.672 269.995 34.24 269.035 33.376C268.075 32.48 267.595 31.424 267.595 30.208C267.595 29.12 267.915 28.224 268.555 27.52C269.227 26.784 270.267 26.112 271.675 25.504L275.947 23.632C276.587 23.344 276.971 23.088 277.099 22.864C277.259 22.64 277.339 22.224 277.339 21.616L277.387 18.88C277.419 17.952 277.259 17.232 276.907 16.72C276.555 16.208 276.027 15.952 275.323 15.952C274.939 15.952 274.523 16.048 274.075 16.24C273.659 16.4 273.339 16.592 273.115 16.816C272.923 17.04 272.827 17.376 272.827 17.824C272.827 18.048 272.843 18.288 272.875 18.544C272.907 18.768 272.923 18.992 272.923 19.216C272.923 19.536 272.379 19.936 271.291 20.416C270.235 20.896 269.355 21.136 268.651 21.136C268.395 21.136 268.187 21.04 268.027 20.848C267.867 20.656 267.787 20.416 267.787 20.128C267.787 19.616 267.963 19.12 268.315 18.64C268.667 18.16 269.243 17.584 270.043 16.912C271.291 15.888 272.699 15.024 274.267 14.32C275.835 13.616 277.147 13.264 278.203 13.264C279.899 13.264 281.259 13.824 282.283 14.944C283.307 16.032 283.803 17.488 283.771 19.312L283.531 29.008C283.499 29.744 283.627 30.368 283.915 30.88C284.203 31.392 284.555 31.648 284.971 31.648C285.579 31.648 286.107 31.44 286.555 31.024C286.651 30.928 286.747 30.88 286.843 30.88C287.003 30.88 287.131 30.944 287.227 31.072C287.355 31.168 287.419 31.28 287.419 31.408C287.419 31.824 287.131 32.32 286.555 32.896C285.371 34.08 284.027 34.672 282.523 34.672C281.595 34.672 280.779 34.448 280.075 34C279.371 33.584 278.699 32.896 278.059 31.936H277.963C276.907 32.928 275.947 33.632 275.083 34.048C274.251 34.464 273.355 34.672 272.395 34.672ZM275.275 31.552C275.883 31.552 276.395 31.312 276.811 30.832C277.035 30.48 277.147 30.064 277.147 29.584L277.291 26.128C277.291 25.616 277.131 25.36 276.811 25.36C276.651 25.36 276.459 25.424 276.235 25.552C275.211 26.032 274.491 26.512 274.075 26.992C273.691 27.472 273.499 28.192 273.499 29.152C273.499 29.984 273.675 30.592 274.027 30.976C274.379 31.36 274.795 31.552 275.275 31.552Z" fill="#151515"/>
<path d="M289.266 34.144C288.978 34.144 288.738 34.096 288.546 34C288.386 33.872 288.306 33.696 288.306 33.472C288.306 33.216 288.386 33.024 288.546 32.896C288.738 32.736 289.026 32.608 289.41 32.512C290.114 32.288 290.578 32.048 290.802 31.792C291.058 31.536 291.186 31.168 291.186 30.688V19.648C291.186 18.912 291.074 18.352 290.85 17.968C290.658 17.552 290.29 17.264 289.746 17.104C289.33 16.976 289.122 16.688 289.122 16.24C289.122 15.792 289.314 15.52 289.698 15.424C290.722 15.2 291.842 14.88 293.058 14.464C294.306 14.016 295.362 13.584 296.226 13.168C296.706 12.816 297.074 12.64 297.33 12.64C297.618 12.64 297.762 12.816 297.762 13.168L297.618 16.96C297.618 17.248 297.682 17.392 297.81 17.392C298.642 16.24 299.602 15.264 300.69 14.464C301.778 13.632 302.85 13.216 303.906 13.216C304.962 13.216 305.73 13.424 306.21 13.84C306.722 14.224 306.978 14.768 306.978 15.472C306.978 16.24 306.674 17.056 306.066 17.92C305.49 18.752 304.866 19.168 304.194 19.168C303.778 19.168 303.154 18.944 302.322 18.496C302.194 18.432 301.922 18.32 301.506 18.16C301.122 17.968 300.802 17.872 300.546 17.872C298.498 17.872 297.474 19.392 297.474 22.432V30.256C297.474 30.864 297.666 31.328 298.05 31.648C298.434 31.968 299.09 32.256 300.018 32.512C300.722 32.704 301.074 33.024 301.074 33.472C301.074 33.664 300.994 33.824 300.834 33.952C300.674 34.08 300.482 34.144 300.258 34.144C299.234 34.144 298.21 34.096 297.186 34C295.906 33.936 295.01 33.904 294.498 33.904C293.954 33.904 293.138 33.936 292.05 34C291.186 34.096 290.258 34.144 289.266 34.144Z" fill="#151515"/>
<path d="M313.317 34.672C312.037 34.672 310.917 34.24 309.957 33.376C308.997 32.48 308.517 31.424 308.517 30.208C308.517 29.12 308.837 28.224 309.477 27.52C310.149 26.784 311.189 26.112 312.597 25.504L316.869 23.632C317.509 23.344 317.893 23.088 318.021 22.864C318.181 22.64 318.261 22.224 318.261 21.616L318.309 18.88C318.341 17.952 318.181 17.232 317.829 16.72C317.477 16.208 316.949 15.952 316.245 15.952C315.861 15.952 315.445 16.048 314.997 16.24C314.581 16.4 314.261 16.592 314.037 16.816C313.845 17.04 313.749 17.376 313.749 17.824C313.749 18.048 313.765 18.288 313.797 18.544C313.829 18.768 313.845 18.992 313.845 19.216C313.845 19.536 313.301 19.936 312.213 20.416C311.157 20.896 310.277 21.136 309.573 21.136C309.317 21.136 309.109 21.04 308.949 20.848C308.789 20.656 308.709 20.416 308.709 20.128C308.709 19.616 308.885 19.12 309.237 18.64C309.589 18.16 310.165 17.584 310.965 16.912C312.213 15.888 313.621 15.024 315.189 14.32C316.757 13.616 318.069 13.264 319.125 13.264C320.821 13.264 322.181 13.824 323.205 14.944C324.229 16.032 324.725 17.488 324.693 19.312L324.453 29.008C324.421 29.744 324.549 30.368 324.837 30.88C325.125 31.392 325.477 31.648 325.893 31.648C326.501 31.648 327.029 31.44 327.477 31.024C327.573 30.928 327.669 30.88 327.765 30.88C327.925 30.88 328.053 30.944 328.149 31.072C328.277 31.168 328.341 31.28 328.341 31.408C328.341 31.824 328.053 32.32 327.477 32.896C326.293 34.08 324.949 34.672 323.445 34.672C322.517 34.672 321.701 34.448 320.997 34C320.293 33.584 319.621 32.896 318.981 31.936H318.885C317.829 32.928 316.869 33.632 316.005 34.048C315.173 34.464 314.277 34.672 313.317 34.672ZM316.197 31.552C316.805 31.552 317.317 31.312 317.733 30.832C317.957 30.48 318.069 30.064 318.069 29.584L318.213 26.128C318.213 25.616 318.053 25.36 317.733 25.36C317.573 25.36 317.381 25.424 317.157 25.552C316.133 26.032 315.413 26.512 314.997 26.992C314.613 27.472 314.421 28.192 314.421 29.152C314.421 29.984 314.597 30.592 314.949 30.976C315.301 31.36 315.717 31.552 316.197 31.552Z" fill="#151515"/>
</svg>
